# xmcd
#
# Track frame offsets: 
#        150
#        16647
#        32433
#        48697
#        63166
#        74269
#        83956
#        101415
#        112835
#        123994
#        136624
#        153850
#        165994
#        182254
#        200014
#        218012
#        232720
#        243449
#        255912
#        272720
#
# Disc length: 3830 seconds
#
# Revision: 0
# Processed by: cddbd v1.5.2PL0 Copyright (c) Steve Scherf et al.
# Submitted via: ExactAudioCopy v0.99pb4
#
DISCID=ed0ef414
DTITLE=Jimmy Frey - 75 - CD 2
DYEAR=2014
DGENRE=Chanson
TTITLE0=Harten Kennen Geen Geheimen
TTITLE1=Kom Dans Marie
TTITLE2=Neem Mijn Hand
TTITLE3=Een Parel Van Een Vrouw
TTITLE4=In M'n Droom
TTITLE5=Jij Bent Een Droom Voor Overdag
TTITLE6=En De Wereld Mag Het Weten
TTITLE7=Eenzaam Oudje
TTITLE8=Eenmaal Blauw, Eenmaal Grauw
TTITLE9=Ik Heb Een Groot Verdriet
TTITLE10=Het Gezicht Van Een Clown
TTITLE11=Dubbel Spel
TTITLE12=40 Jaar
TTITLE13=Als De Kinderen Slapen Zijn
TTITLE14=Ik Hou Van Jou (Na Na Na)
TTITLE15=De Liefde Blijft Een Kracht
TTITLE16=Laat Ons Vergeven En Vergeten
TTITLE17=Nieuwe Liefde, Nieuwe Dromen
TTITLE18=Heist Aan Zee 1951
TTITLE19=Geen Ogen Zijn Zo Blauw
EXTD=
EXTT0=
EXTT1=
EXTT2=
EXTT3=
EXTT4=
EXTT5=
EXTT6=
EXTT7=
EXTT8=
EXTT9=
EXTT10=
EXTT11=
EXTT12=
EXTT13=
EXTT14=
EXTT15=
EXTT16=
EXTT17=
EXTT18=
EXTT19=
PLAYORDER=
